Coordinates
version=1
nRows=49
nColumns=12
inDegrees=yes

Units are S.I. units (second, meters, Newtons, ...)
Angles are in degrees

endheader
time	SC_y	SC_z	SC_x	AC_y	AC_z	AC_x	GH_y	GH_z	GH_yy	EL_x	PS_y
       0.0              -21.89          3.499           30.6          44.28         -14.14         -13.93          101.0          83.13         -42.44          48.27          83.62
    0.0363              -21.89          3.501           30.6          44.28         -14.14         -13.93          101.0          83.12         -42.42          48.28          83.63
    0.0726              -21.89          3.504           30.6          44.28         -14.14         -13.93          100.9          83.12         -42.38          48.29          83.64
    0.1089               -21.9          3.508          30.61          44.28         -14.14         -13.92          100.9          83.11         -42.35           48.3          83.65
    0.1452               -21.9          3.511          30.61          44.29         -14.13         -13.92          100.9           83.1         -42.32          48.31          83.67
    0.1815               -21.9          3.515          30.61          44.29         -14.13         -13.92          100.8          83.09         -42.28          48.32          83.68
    0.2178              -21.91          3.518          30.61           44.3         -14.13         -13.92          100.8          83.07         -42.24          48.34          83.69
    0.2541              -21.91          3.522          30.61           44.3         -14.13         -13.92          100.7          83.06          -42.2          48.35          83.71
    0.2904              -21.92          3.527          30.62           44.3         -14.13         -13.91          100.7          83.05         -42.15          48.37          83.72
    0.3267              -21.92          3.532          30.62          44.31         -14.12         -13.91          100.6          83.03         -42.11          48.38          83.74
     0.363              -21.93          3.537          30.62          44.31         -14.12         -13.91          100.6          83.02         -42.05           48.4          83.76
    0.3993              -21.94          3.542          30.62          44.32         -14.12         -13.91          100.5           83.0          -42.0          48.42          83.78
    0.4356              -21.94          3.548          30.63          44.32         -14.12          -13.9          100.5          82.99         -41.94          48.44           83.8
    0.4719              -21.95          3.554          30.63          44.33         -14.11          -13.9          100.4          82.97         -41.87          48.47          83.82
    0.5082              -21.96          3.561          30.64          44.34         -14.11          -13.9          100.3          82.95          -41.8          48.49          83.85
    0.5445              -21.97          3.568          30.64          44.34         -14.11         -13.89          100.2          82.92         -41.73          48.52          83.88
    0.5808              -21.97          3.577          30.64          44.35          -14.1         -13.89          100.1           82.9         -41.64          48.55          83.91
    0.6171              -21.98          3.585          30.65          44.36          -14.1         -13.88          100.0          82.87         -41.55          48.58          83.94
    0.6534              -21.99          3.595          30.65          44.37         -14.09         -13.88          99.93          82.84         -41.45          48.61          83.97
    0.6897              -22.01          3.605          30.66          44.38         -14.09         -13.87          99.82          82.81         -41.35          48.65          84.01
     0.726              -22.02          3.617          30.67          44.39         -14.08         -13.87          99.69          82.78         -41.23          48.69          84.05
    0.7623              -22.03           3.63          30.67          44.41         -14.08         -13.86          99.55          82.74          -41.1          48.74           84.1
    0.7986              -22.05          3.644          30.68          44.42         -14.07         -13.86          99.39           82.7         -40.95          48.79          84.15
    0.8349              -22.07          3.659          30.69          44.43         -14.06         -13.85          99.22          82.65         -40.79          48.84          84.21
    0.8712              -22.09          3.677           30.7          44.45         -14.06         -13.84          99.03           82.6         -40.61           48.9          84.27
    0.9075              -22.11          3.696          30.71          44.47         -14.05         -13.83          98.82          82.54         -40.42          48.97          84.34
    0.9438              -22.13          3.717          30.72          44.49         -14.04         -13.82          98.58          82.48         -40.19          49.05          84.42
    0.9801              -22.16          3.742          30.73          44.52         -14.03         -13.81          98.31           82.4         -39.94          49.14          84.51
     1.016              -22.19          3.769          30.75          44.54         -14.01         -13.79           98.0          82.32         -39.66          49.23          84.61
     1.053              -22.23            3.8          30.77          44.57          -14.0         -13.78          97.66          82.23         -39.34          49.35          84.72
     1.089              -22.27          3.836          30.79          44.61         -13.98         -13.76          97.26          82.12         -38.98          49.47          84.85
     1.125              -22.31          3.877          30.81          44.65         -13.96         -13.74          96.81           82.0         -38.56          49.62           85.0
     1.162              -22.37          3.924          30.84           44.7         -13.94         -13.71          96.29          81.86         -38.07          49.79          85.18
     1.198              -22.43          3.979          30.87          44.75         -13.92         -13.69          95.68          81.69         -37.51          49.98          85.38
     1.234               -22.5          4.043           30.9          44.81         -13.89         -13.65          94.97           81.5         -36.85          50.21          85.61
      1.27              -22.59          4.118          30.94          44.89         -13.85         -13.61          94.13          81.27         -36.07          50.48          85.89
     1.307              -22.69          4.208          30.99          44.98         -13.81         -13.57          93.14           81.0         -35.15           50.8          86.21
     1.343              -22.81          4.316          31.05          45.08         -13.76         -13.51          91.94          80.68         -34.04          51.19          86.61
     1.379              -22.96          4.446          31.12          45.21          -13.7         -13.45           90.5          80.29          -32.7          51.65          87.08
     1.416              -23.14          4.605          31.21          45.37         -13.62         -13.37          88.73          79.81         -31.07          52.22          87.66
     1.452              -23.36          4.801          31.32          45.57         -13.53         -13.27          86.56          79.22         -29.05          52.92          88.38
     1.488              -23.63          5.046          31.45          45.81         -13.42         -13.15          83.84          78.49         -26.53           53.8          89.28
     1.525              -23.98          5.355          31.62          46.11         -13.27         -12.99          80.42          77.56         -23.36           54.9           90.4
     1.561              -24.42          5.747          31.84           46.5         -13.09         -12.79          76.08          76.39         -19.33           56.3          91.84
     1.597              -24.99          6.248          32.12           47.0         -12.85         -12.54          70.51          74.88         -14.17          58.09          93.67
     1.633              -25.72          6.892          32.47          47.64         -12.55         -12.21          63.37          72.95         -7.545          60.39          96.02
      1.67              -26.65          7.715          32.92          48.45         -12.17         -11.79          54.25          70.48          0.914          63.33          99.03
     1.706              -27.82          8.749          33.49          49.47         -11.68         -11.27          42.78          67.37          11.55          67.02          102.8
     1.742              -29.24          10.01          34.19          50.72         -11.09         -10.63          28.81          63.59          24.51          71.52          107.4
